<svg xmlns="http://www.w3.org/2000/svg" xmlns:xlink="http://www.w3.org/1999/xlink" width="15.988" height="12.768" viewBox="0 0 15.988 12.768"><defs><style>.a,.b{fill:#003161;}.a{clip-rule:evenodd;}.c{clip-path:url(#a);}.d{clip-path:url(#b);}</style><clipPath id="a"><path class="a" d="M38.855-249a8.172,8.172,0,0,0-1.7-2.594A8.021,8.021,0,0,0,34.6-253.33a7.707,7.707,0,0,0-3.1-.644,7.708,7.708,0,0,0-3.1.644,8.026,8.026,0,0,0-2.552,1.732,8.173,8.173,0,0,0-1.7,2.594,8.055,8.055,0,0,0-.633,3.156,8.08,8.08,0,0,0,1.258,4.38.541.541,0,0,0,.482.263H37.749a.541.541,0,0,0,.482-.263,8.109,8.109,0,0,0,1.258-4.38A8.056,8.056,0,0,0,38.855-249Zm-8.168-3.469a1.092,1.092,0,0,1,.807-.34,1.091,1.091,0,0,1,.807.34,1.127,1.127,0,0,1,.335.821,1.127,1.127,0,0,1-.335.821,1.092,1.092,0,0,1-.807.34,1.092,1.092,0,0,1-.807-.34,1.128,1.128,0,0,1-.335-.821,1.127,1.127,0,0,1,.335-.821Zm-4.1,7.445a1.092,1.092,0,0,1-.807.34,1.092,1.092,0,0,1-.807-.34,1.127,1.127,0,0,1-.335-.821,1.127,1.127,0,0,1,.335-.821,1.092,1.092,0,0,1,.807-.34,1.091,1.091,0,0,1,.807.34,1.128,1.128,0,0,1,.335.821,1.128,1.128,0,0,1-.335.821Zm1.713-4.062a1.092,1.092,0,0,1-.808.34,1.092,1.092,0,0,1-.808-.34,1.128,1.128,0,0,1-.335-.821,1.127,1.127,0,0,1,.335-.821,1.092,1.092,0,0,1,.808-.34,1.092,1.092,0,0,1,.808.34,1.128,1.128,0,0,1,.335.821,1.128,1.128,0,0,1-.335.821Zm5.054.077-.9,3.464a1.719,1.719,0,0,1,.643.825,1.7,1.7,0,0,1,.053,1.061,1.662,1.662,0,0,1-.794,1.061,1.644,1.644,0,0,1-1.3.181,1.642,1.642,0,0,1-1.044-.807,1.72,1.72,0,0,1-.178-1.324,1.689,1.689,0,0,1,.562-.893,1.681,1.681,0,0,1,.955-.395l.9-3.464a.571.571,0,0,1,.268-.358.525.525,0,0,1,.428-.059.566.566,0,0,1,.343.268.581.581,0,0,1,.067.44Zm1.325-.077a1.128,1.128,0,0,1-.335-.821,1.127,1.127,0,0,1,.335-.821,1.092,1.092,0,0,1,.807-.34,1.092,1.092,0,0,1,.807.34,1.127,1.127,0,0,1,.335.821,1.128,1.128,0,0,1-.335.821,1.092,1.092,0,0,1-.807.34,1.092,1.092,0,0,1-.807-.34Zm3.328,4.063a1.092,1.092,0,0,1-.807.34,1.092,1.092,0,0,1-.807-.34,1.127,1.127,0,0,1-.335-.821,1.128,1.128,0,0,1,.335-.821,1.092,1.092,0,0,1,.807-.34,1.092,1.092,0,0,1,.807.34,1.127,1.127,0,0,1,.335.821,1.127,1.127,0,0,1-.335.821Z" transform="translate(0 323)"/></clipPath><clipPath id="b"><path class="b" d="M23-241H40v-13H23Z" transform="translate(0 323)"/></clipPath></defs><g class="c" transform="translate(-23.5 -69.026)"><g class="d"><path class="b" d="M18.5-236.206H44.488v-22.768H18.5Z" transform="translate(0 323)"/></g></g></svg>