<svg xmlns="http://www.w3.org/2000/svg" width="28.848" height="20.957" viewBox="0 0 28.848 20.957"><defs><style>.a,.b{fill:#003161;}.c,.d{stroke:none;}.d{fill:#f8f8f8;}</style></defs><g transform="translate(-527.883 -764.293)"><g transform="translate(518.905 753.492) rotate(-14)"><path class="a" d="M21.423,17.058H7.343A2.346,2.346,0,0,0,5,19.4v9.051A2.346,2.346,0,0,0,7.343,30.8h14.08a2.346,2.346,0,0,0,2.344-2.344V19.4A2.346,2.346,0,0,0,21.423,17.058Zm-14.08.664h14.08a1.678,1.678,0,0,1,1.416.78l-7.221,6.82a1.822,1.822,0,0,1-2.469,0L5.927,18.5A1.679,1.679,0,0,1,7.343,17.722ZM5.68,28.673a1.709,1.709,0,0,1-.016-.221V19.4a1.674,1.674,0,0,1,.016-.22l5.025,4.746Zm15.743,1.459H7.343a1.678,1.678,0,0,1-1.416-.78l5.261-4.969,1.5,1.421a2.492,2.492,0,0,0,3.38,0l1.5-1.421,5.261,4.969A1.677,1.677,0,0,1,21.423,30.132ZM23.1,19.4v9.051a1.706,1.706,0,0,1-.016.221l-5.025-4.746,5.025-4.746A1.742,1.742,0,0,1,23.1,19.4Z" transform="translate(0 0)"/></g><g transform="translate(1554.094 744.178) rotate(90)"><g class="b" transform="translate(0)"><path class="c" d="M 34.40346908569336 1011.206604003906 C 34.40343475341797 1011.206604003906 34.4034309387207 1011.206604003906 34.40340042114258 1011.206604003906 L 34.4034309387207 1010.206604003906 L 34.40335845947266 1011.206604003906 L 34.40316009521484 1011.206604003906 L 34.40266799926758 1011.206604003906 C 33.51084899902344 1011.206604003906 32.75795745849609 1010.599304199219 32.53594970703125 1009.776306152344 C 32.31393051147461 1010.599304199219 31.56098175048828 1011.206604003906 30.66881942749023 1011.206604003906 C 29.6026496887207 1011.206604003906 28.73525047302246 1010.339172363281 28.73525047302246 1009.27294921875 L 28.73525047302246 1004.158325195312 L 28.0872802734375 1004.642272949219 C 27.75110054016113 1004.893615722656 27.35231018066406 1005.026672363281 26.9344596862793 1005.026672363281 C 26.33049964904785 1005.026672363281 25.75298881530762 1004.736389160156 25.38961982727051 1004.250122070312 C 25.15377998352051 1003.934143066406 25.0198802947998 1003.56689453125 25.00211906433105 1003.187622070312 C 24.97134971618652 1002.54248046875 25.26275062561035 1001.92529296875 25.78166961669922 1001.537475585938 L 29.41596031188965 998.8367919921875 L 29.45128059387207 998.8104858398438 L 29.48876953125 998.7874755859375 C 29.51713943481445 998.77001953125 29.54405975341797 998.7517700195312 29.57073974609375 998.73388671875 C 29.77861976623535 998.5948486328125 30.12654876708984 998.3621826171875 30.66811943054199 998.3621826171875 C 31.56086730957031 998.3621826171875 32.31391525268555 998.969482421875 32.53594970703125 999.79248046875 C 32.75796508789062 998.969482421875 33.51091766357422 998.3621826171875 34.40307998657227 998.3621826171875 C 35.4692497253418 998.3621826171875 36.33665084838867 999.2295532226562 36.33665084838867 1000.295776367188 L 36.33665084838867 1005.410522460938 L 36.984619140625 1004.926574707031 C 37.32080841064453 1004.675231933594 37.71960067749023 1004.542175292969 38.1374397277832 1004.542175292969 C 38.74140930175781 1004.542175292969 39.31893157958984 1004.83251953125 39.68230056762695 1005.318786621094 C 39.9180793762207 1005.634460449219 40.05202102661133 1006.001770019531 40.06978988647461 1006.381164550781 C 40.10054016113281 1007.026245117188 39.80920028686523 1007.643432617188 39.29042816162109 1008.031372070312 L 35.65592956542969 1010.732177734375 L 35.620361328125 1010.758605957031 L 35.58258819580078 1010.781799316406 C 35.55419158935547 1010.799194335938 35.52724075317383 1010.817504882812 35.50053787231445 1010.835327148438 C 35.29270172119141 1010.974182128906 34.94484329223633 1011.206604003906 34.40346908569336 1011.206604003906 Z"/><path class="d" d="M 34.4034309387207 1010.206604003906 C 34.6982307434082 1010.206604003906 34.85381317138672 1010.055725097656 35.05947875976562 1009.929504394531 L 38.69160079956055 1007.23046875 C 38.9497184753418 1007.037475585938 39.08515930175781 1006.727478027344 39.07088088989258 1006.427917480469 C 39.06246948242188 1006.248352050781 38.99692916870117 1006.072265625 38.88124084472656 1005.917358398438 C 38.69782638549805 1005.671936035156 38.41961288452148 1005.542175292969 38.13744354248047 1005.542175292969 C 37.94486999511719 1005.542175292969 37.75049591064453 1005.6025390625 37.5830078125 1005.727783203125 L 35.33665084838867 1007.405517578125 L 35.33665084838867 1000.295776367188 C 35.33665084838867 999.7801513671875 34.9185791015625 999.3621826171875 34.40307998657227 999.3621826171875 C 33.88758087158203 999.3621826171875 33.46952056884766 999.7801513671875 33.46952056884766 1000.295776367188 L 33.46952056884766 1009.27294921875 C 33.46952056884766 1009.78857421875 33.88758087158203 1010.206604003906 34.40307998657227 1010.206604003906 C 34.4031867980957 1010.206604003906 34.40332412719727 1010.206604003906 34.4034309387207 1010.206604003906 M 30.66881942749023 1010.206604003906 C 31.18436050415039 1010.206604003906 31.60237884521484 1009.78857421875 31.60237884521484 1009.27294921875 L 31.60237884521484 1000.295776367188 C 31.60237884521484 999.7801513671875 31.18436050415039 999.3621826171875 30.66881942749023 999.3621826171875 C 30.6685848236084 999.3621826171875 30.6683521270752 999.3621826171875 30.66811752319336 999.3621826171875 C 30.37356185913086 999.3621826171875 30.21799659729004 999.5130615234375 30.01242065429688 999.639404296875 L 26.38030052185059 1002.338500976562 C 26.12221908569336 1002.531372070312 25.98674011230469 1002.84130859375 26.00102996826172 1003.140869140625 C 26.00942993164062 1003.3203125 26.07497978210449 1003.496520996094 26.19067001342773 1003.651489257812 C 26.37408256530762 1003.896911621094 26.65229415893555 1004.026672363281 26.93445777893066 1004.026672363281 C 27.12702941894531 1004.026672363281 27.3214054107666 1003.96630859375 27.48888969421387 1003.841064453125 L 29.73525047302246 1002.163330078125 L 29.73525047302246 1009.27294921875 C 29.73525047302246 1009.78857421875 30.1533203125 1010.206604003906 30.66881942749023 1010.206604003906 M 34.40346145629883 1012.206604003906 L 34.40307998657227 1012.206604003906 C 33.69440460205078 1012.206604003906 33.04354858398438 1011.953918457031 32.53594970703125 1011.534057617188 C 32.02835083007812 1011.953918457031 31.37749481201172 1012.206604003906 30.66881942749023 1012.206604003906 C 29.05123901367188 1012.206604003906 27.73525047302246 1010.890563964844 27.73525047302246 1009.27294921875 L 27.73525047302246 1005.915649414062 C 27.47736167907715 1005.989074707031 27.20868492126465 1006.026672363281 26.9344596862793 1006.026672363281 C 26.01671028137207 1006.026672363281 25.13973999023438 1005.586303710938 24.58855056762695 1004.8486328125 C 24.23255920410156 1004.371826171875 24.03034019470215 1003.813842773438 24.00321960449219 1003.234375 C 23.95662879943848 1002.257873535156 24.39765930175781 1001.323364257812 25.18304061889648 1000.736450195312 L 25.18520927429199 1000.734802246094 L 25.18737983703613 1000.733215332031 L 28.81949996948242 998.0341186523438 L 28.89015007019043 997.9816284179688 L 28.96512985229492 997.935546875 C 28.98204040527344 997.9249877929688 28.99843978881836 997.9136352539062 29.01482009887695 997.9026489257812 C 29.25664901733398 997.7409057617188 29.82296943664551 997.3621826171875 30.66811943054199 997.3621826171875 C 31.37719917297363 997.3621826171875 32.02816009521484 997.6148071289062 32.535888671875 998.0347900390625 C 33.04351806640625 997.6148071289062 33.69430541992188 997.3621826171875 34.40307998657227 997.3621826171875 C 36.02066040039062 997.3621826171875 37.33665084838867 998.6781616210938 37.33665084838867 1000.295776367188 L 37.33665084838867 1003.653198242188 C 37.59453582763672 1003.579772949219 37.86320877075195 1003.542175292969 38.1374397277832 1003.542175292969 C 39.05519104003906 1003.542175292969 39.93217086791992 1003.982543945312 40.48336029052734 1004.72021484375 C 40.83924102783203 1005.196716308594 41.04153823852539 1005.754699707031 41.06869125366211 1006.334350585938 C 41.11523818969727 1007.310791015625 40.67435836791992 1008.245178222656 39.88925933837891 1008.832214355469 L 39.88687896728516 1008.833984375 L 39.88449859619141 1008.835754394531 L 36.25238037109375 1011.534790039062 L 36.18122863769531 1011.587646484375 L 36.10569000244141 1011.634033203125 C 36.08882904052734 1011.64453125 36.07244110107422 1011.655883789062 36.05606842041016 1011.666809082031 C 35.8143196105957 1011.828369140625 35.2481689453125 1012.206604003906 34.40346145629883 1012.206604003906 Z"/></g></g></g></svg>