<svg xmlns="http://www.w3.org/2000/svg" xmlns:xlink="http://www.w3.org/1999/xlink" width="16.689" height="18.914" viewBox="0 0 16.689 18.914"><defs><style>.a,.b{fill:#003161;}.b{clip-rule:evenodd;}.c{clip-path:url(#a);}.d{clip-path:url(#b);}.e{clip-path:url(#c);}.f{clip-path:url(#d);}</style><clipPath id="a"><rect class="a" width="16.689" height="18.914"/></clipPath><clipPath id="b"><path class="b" d="M33.5-84.188a1.133,1.133,0,0,1-.832-.342,1.128,1.128,0,0,1-.342-.83V-92H25.674a1.136,1.136,0,0,0-.832.342,1.129,1.129,0,0,0-.342.83v16.4a1.129,1.129,0,0,0,.342.83,1.136,1.136,0,0,0,.832.342H38.981a1.133,1.133,0,0,0,.831-.342,1.129,1.129,0,0,0,.342-.83v-9.764Zm3.522,7.421a.379.379,0,0,1-.11.28.381.381,0,0,1-.281.11h-8.61a.381.381,0,0,1-.281-.11.379.379,0,0,1-.11-.28v-.781a.378.378,0,0,1,.11-.281.382.382,0,0,1,.281-.11h8.61a.382.382,0,0,1,.281.11.38.38,0,0,1,.11.281Zm0-3.125a.38.38,0,0,1-.11.281.382.382,0,0,1-.281.11h-8.61a.382.382,0,0,1-.281-.11.38.38,0,0,1-.11-.281v-.781a.374.374,0,0,1,.11-.28.379.379,0,0,1,.281-.11h8.61a.379.379,0,0,1,.281.11.376.376,0,0,1,.11.28Z" transform="translate(-24.5 92)"/></clipPath><clipPath id="c"><path class="a" d="M24-73.086H41.8V-92H24Z" transform="translate(-24 92)"/></clipPath><clipPath id="d"><path class="b" d="M37.93-87.4l-3.816-3.808A2.968,2.968,0,0,0,32.5-92v6.213h6.226A2.963,2.963,0,0,0,37.93-87.4Z" transform="translate(-32.5 92)"/></clipPath></defs><g transform="translate(-24 -231)"><g class="c" transform="translate(24 231)"><g class="d" transform="translate(0.556)"><g class="e" transform="translate(-0.556)"><path class="a" d="M19.5-67.126H46.28V-97H19.5Z" transform="translate(-24.507 91.437)"/></g></g><g class="f" transform="translate(9.457)"><g class="e" transform="translate(-9.457)"><path class="a" d="M27.5-79.661H44.852V-97H27.5Z" transform="translate(-23.606 91.437)"/></g></g></g></g></svg>