<svg xmlns="http://www.w3.org/2000/svg" width="15.398" height="13.37" viewBox="0 0 15.398 13.37"><defs><style>.a{fill:#003161;fill-rule:evenodd;}</style></defs><g transform="translate(-482.887 -634.264)"><path class="a" d="M6.1,22.789a2.7,2.7,0,0,1,.638-1.806,1.993,1.993,0,0,1,1.555-.744,1.9,1.9,0,0,1,1.082.347,4.34,4.34,0,0,0-.329,1.661,4.22,4.22,0,0,0,.734,2.424,3.277,3.277,0,0,1-.435.357l-1.989.917a1.488,1.488,0,0,0-.647.6,1.609,1.609,0,0,0-.251.879v3.9H4.492a.448.448,0,0,1-.348-.164A.616.616,0,0,1,4,30.752V26.97a.632.632,0,0,1,.077-.319.525.525,0,0,1,.232-.212l2.974-1.381a2.418,2.418,0,0,1-.869-.927A2.847,2.847,0,0,1,6.1,22.789ZM16.685,21.4a3.118,3.118,0,0,1,.126.849,3.592,3.592,0,0,1-.319,1.477,3.006,3.006,0,0,1-1.11,1.3l3.641,1.738a.682.682,0,0,1,.28.261.8.8,0,0,1,.1.4v4.332a.742.742,0,0,1-.184.5.529.529,0,0,1-.425.212h-9.4a.529.529,0,0,1-.425-.212.743.743,0,0,1-.184-.5V27.424a.744.744,0,0,1,.106-.4.683.683,0,0,1,.28-.261l3.669-1.719A3,3,0,0,1,11.731,23.8a3.549,3.549,0,0,1-.347-1.555,3.935,3.935,0,0,1,.125-.927,3.142,3.142,0,0,1,.966-1.6,2.422,2.422,0,0,1,3.264.029A3.144,3.144,0,0,1,16.685,21.4Z" transform="translate(478.887 615.164)"/></g></svg>